<?xml version="1.0" standalone="no"?>
<!DOCTYPE svg PUBLIC "-//W3C//DTD SVG 20010904//EN"
 "http://www.w3.org/TR/2001/REC-SVG-20010904/DTD/svg10.dtd">
<svg version="1.0" xmlns="http://www.w3.org/2000/svg"
 width="528.000000pt" height="149.000000pt" viewBox="0 0 528.000000 149.000000"
 preserveAspectRatio="xMidYMid meet">

<g transform="translate(0.000000,149.000000) scale(0.100000,-0.100000)"
fill="#000000" stroke="none">
<path d="M1460 1475 c0 -28 -38 -91 -75 -124 -20 -17 -64 -44 -99 -60 -107
-48 -186 -134 -221 -240 -37 -112 -2 -272 74 -345 l30 -28 30 21 c45 32 130
68 179 76 40 6 42 8 28 24 -33 37 -3 101 47 101 56 0 126 31 171 75 108 109
116 306 16 427 -50 61 -180 113 -180 73z"/>
<path d="M813 1385 c-65 -28 -84 -121 -35 -176 47 -53 149 -56 198 -7 102 102
-24 244 -163 183z"/>
<path d="M4012 1314 c-45 -31 -17 -104 41 -104 28 0 57 32 57 62 0 23 -35 58
-58 58 -10 0 -28 -7 -40 -16z"/>
<path d="M1935 1307 c-3 -6 -4 -199 -3 -427 l3 -415 113 -3 112 -3 0 186 c0
215 8 247 64 270 46 20 90 10 121 -27 25 -29 25 -31 25 -229 l0 -199 115 0
115 0 0 210 c0 115 -5 232 -11 260 -36 169 -244 241 -384 135 l-45 -35 0 145
0 145 -110 0 c-79 0 -112 -4 -115 -13z"/>
<path d="M2777 1263 c-4 -3 -7 -39 -7 -80 l0 -73 -40 0 -40 0 0 -95 0 -95 40
0 40 0 0 -122 c1 -140 11 -198 45 -249 36 -55 98 -81 211 -87 l94 -5 0 102 0
101 -48 0 c-26 0 -53 5 -60 12 -8 8 -12 52 -12 130 l0 118 60 0 60 0 0 95 0
95 -60 0 -60 0 0 80 0 80 -108 0 c-60 0 -112 -3 -115 -7z"/>
<path d="M4310 1170 l0 -80 -45 0 c-45 0 -45 0 -45 -35 0 -35 0 -35 44 -35
l45 0 3 -234 c3 -220 4 -236 24 -263 31 -42 70 -57 154 -57 l75 -1 0 35 0 35
-66 3 c-105 5 -103 1 -107 263 l-4 218 89 3 88 3 3 33 3 32 -90 0 -91 0 0 80
0 80 -40 0 -40 0 0 -80z"/>
<path d="M1753 1117 c-36 -120 -133 -246 -200 -263 -13 -4 -23 -14 -23 -24 0
-30 -48 -60 -95 -60 -112 0 -261 -81 -324 -176 -113 -171 -64 -403 109 -514
219 -141 518 -61 622 166 19 40 23 66 23 144 0 82 -4 102 -26 150 -15 30 -40
70 -55 88 l-29 32 -43 -30 c-46 -30 -140 -70 -170 -70 -9 0 1 -9 24 -19 229
-104 195 -407 -51 -462 -113 -25 -235 30 -288 131 -25 48 -28 64 -25 122 3 55
9 75 34 110 40 58 113 105 172 112 206 25 260 45 345 125 133 126 156 321 55
469 -16 23 -30 42 -31 42 -1 0 -12 -33 -24 -73z"/>
<path d="M247 1110 c-90 -23 -169 -87 -209 -169 -34 -70 -37 -206 -8 -285 41
-107 123 -173 245 -195 151 -28 315 56 360 185 l13 39 -118 3 c-115 3 -119 2
-144 -23 -48 -48 -126 -26 -145 43 l-10 32 216 0 216 0 -5 78 c-8 131 -64 219
-175 269 -60 28 -173 39 -236 23z m128 -184 c31 -13 55 -41 55 -65 0 -7 -34
-11 -95 -11 -104 0 -112 6 -75 53 18 22 30 28 73 36 4 0 23 -5 42 -13z"/>
<path d="M770 785 l0 -326 113 3 112 3 3 323 2 322 -115 0 -115 0 0 -325z"/>
<path d="M3461 1087 c-19 -6 -51 -27 -73 -47 l-38 -37 0 44 0 43 -45 0 -45 0
2 -312 3 -313 42 -3 42 -3 3 218 c3 190 5 223 22 256 35 71 128 110 221 93 48
-9 112 -68 125 -114 5 -21 10 -131 10 -245 l0 -208 43 3 42 3 0 215 c0 181 -3
223 -18 267 -22 62 -87 126 -143 142 -49 14 -148 12 -193 -2z"/>
<path d="M4867 1080 c-69 -26 -113 -64 -146 -122 -72 -125 -59 -302 29 -402
141 -160 429 -125 507 61 19 48 17 53 -27 53 -35 0 -42 -4 -56 -33 -39 -76
-93 -107 -189 -107 -104 0 -178 49 -210 139 -26 75 -43 70 243 73 l257 3 3 53
c2 29 -4 78 -13 109 -22 76 -100 155 -175 177 -71 21 -163 20 -223 -4z m196
-66 c57 -19 114 -81 123 -133 3 -20 8 -44 11 -53 4 -17 -11 -18 -217 -18
l-222 0 7 37 c8 45 36 102 62 125 31 29 106 58 149 58 22 0 62 -7 87 -16z"/>
<path d="M4010 570 l0 -520 40 0 40 0 0 520 0 520 -40 0 -40 0 0 -520z"/>
<path d="M3880 406 l0 -65 -27 15 c-16 7 -46 14 -68 14 -143 0 -210 -192 -100
-289 45 -39 97 -49 152 -29 24 9 43 12 43 7 0 -5 16 -9 35 -9 l35 0 0 210 0
210 -35 0 -35 0 0 -64z m-55 -110 c39 -17 55 -42 55 -86 0 -59 -34 -99 -86
-100 -97 -1 -128 147 -40 186 38 16 31 16 71 0z"/>
<path d="M3120 405 c0 -28 -4 -35 -20 -35 -16 0 -20 -7 -20 -35 0 -28 4 -35
19 -35 17 0 19 -10 23 -106 3 -97 5 -107 27 -125 16 -13 39 -19 72 -19 48 0
49 1 49 30 0 27 -3 30 -34 30 -42 0 -46 9 -46 111 l0 79 40 0 c39 0 40 1 40
35 0 34 -1 35 -40 35 -39 0 -40 1 -40 35 0 33 -2 35 -35 35 -33 0 -35 -2 -35
-35z"/>
<path d="M2890 363 c-38 -14 -60 -47 -60 -89 0 -52 25 -75 105 -99 60 -17 73
-29 54 -51 -19 -23 -82 -14 -94 14 -7 16 -18 22 -42 22 -36 0 -41 -12 -21 -54
32 -71 159 -85 214 -25 23 26 25 93 3 114 -9 9 -45 26 -80 38 -68 24 -86 47
-49 67 28 15 59 4 70 -26 8 -19 17 -24 45 -24 19 0 35 5 35 10 0 29 -32 80
-59 94 -29 16 -91 20 -121 9z"/>
<path d="M3304 355 c-4 -8 -5 -62 -2 -120 3 -85 7 -109 24 -132 31 -43 81 -65
129 -58 22 4 61 6 88 5 l47 -1 0 160 0 161 -35 0 -35 0 0 -101 c0 -130 -14
-159 -76 -159 -55 0 -68 27 -72 151 l-4 109 -29 0 c-17 0 -32 -6 -35 -15z"/>
<path d="M4215 356 c-77 -34 -112 -128 -81 -210 20 -51 38 -69 91 -91 73 -31
163 3 200 76 34 65 10 170 -48 211 -37 27 -120 34 -162 14z m133 -83 c36 -39
27 -116 -17 -150 -43 -33 -124 0 -136 57 -22 100 86 166 153 93z"/>
</g>
</svg>
