<?xml version="1.0" standalone="no"?>
<!DOCTYPE svg PUBLIC "-//W3C//DTD SVG 20010904//EN"
 "http://www.w3.org/TR/2001/REC-SVG-20010904/DTD/svg10.dtd">
<svg version="1.0" xmlns="http://www.w3.org/2000/svg"
 width="867.000000pt" height="538.000000pt" viewBox="0 0 867.000000 538.000000"
 preserveAspectRatio="xMidYMid meet">

<g transform="translate(0.000000,538.000000) scale(0.100000,-0.100000)"
fill="#000000" stroke="none">
<path d="M7210 5374 c-157 -20 -320 -71 -453 -142 -51 -27 -861 -556 -1802
-1177 -3519 -2321 -3962 -2613 -3981 -2619 -29 -9 -80 28 -106 76 l-23 43 -3
1160 -2 1160 22 45 c13 25 30 46 39 48 9 2 363 -225 785 -504 423 -279 792
-517 819 -530 114 -53 239 -49 362 11 85 42 142 101 187 195 l31 65 6 870 c4
479 3 898 -1 933 -19 140 -110 265 -238 325 -63 30 -74 32 -177 32 -102 0
-115 -2 -176 -31 -84 -40 -158 -114 -201 -201 l-33 -68 -5 -486 -5 -487 -445
295 c-245 161 -472 308 -505 325 -352 182 -768 103 -1044 -198 -113 -124 -186
-265 -233 -451 l-23 -88 0 -1235 c0 -1015 2 -1247 14 -1305 46 -231 152 -428
310 -578 114 -108 223 -171 381 -222 71 -23 107 -28 225 -32 126 -4 150 -2
240 21 55 14 138 45 185 69 47 24 603 384 1235 802 3761 2482 4535 2991 4585
3014 47 22 68 26 151 26 90 0 99 -2 174 -39 111 -55 191 -139 249 -259 24 -51
50 -117 58 -147 10 -45 13 -306 13 -1395 0 -1503 6 -1387 -74 -1550 -117 -237
-358 -359 -566 -286 -36 13 -424 263 -1113 717 -648 427 -1077 704 -1109 715
-108 39 -232 31 -331 -20 -247 -127 -301 -472 -105 -664 61 -59 2129 -1424
2239 -1478 99 -48 197 -82 306 -106 115 -25 371 -25 486 0 270 59 493 186 693
395 238 247 375 560 409 932 8 77 10 554 7 1430 -3 1187 -5 1323 -20 1400 -69
343 -218 626 -441 838 -182 171 -398 285 -641 337 -71 15 -291 27 -355 19z"/>
</g>
</svg>
